<?xml version="1.0" standalone="no"?>
<!DOCTYPE svg PUBLIC "-//W3C//DTD SVG 20010904//EN"
 "http://www.w3.org/TR/2001/REC-SVG-20010904/DTD/svg10.dtd">
<svg version="1.0" xmlns="http://www.w3.org/2000/svg"
 width="820.000000pt" height="200.000000pt" viewBox="0 0 820.000000 200.000000"
 preserveAspectRatio="xMidYMid meet">

<g transform="translate(0.000000,200.000000) scale(0.100000,-0.100000)"
fill="#000000" stroke="none">
<path d="M1532 1536 c-76 -41 -267 -402 -328 -621 -18 -65 -34 -90 -76 -111
-30 -16 -98 -19 -98 -5 0 5 14 38 32 72 39 78 49 166 24 204 -13 20 -25 25
-59 25 -23 0 -53 -7 -65 -16 -71 -50 -74 -197 -4 -277 14 -16 13 -21 -23 -57
-52 -53 -89 -66 -115 -40 -11 11 -20 31 -20 44 0 34 36 145 60 184 25 41 25
42 -4 42 -31 0 -79 -54 -114 -129 -14 -31 -50 -80 -79 -109 -45 -46 -58 -53
-85 -50 -30 3 -33 6 -36 40 -2 20 4 53 13 74 55 132 30 234 -58 234 -66 0
-141 -72 -193 -186 -19 -40 -34 -77 -34 -83 0 -5 -5 -13 -12 -17 -16 -10 -3
111 23 208 19 71 25 81 75 124 135 115 241 335 205 427 -20 53 -70 26 -135
-72 -50 -75 -122 -217 -157 -308 -13 -35 -31 -66 -39 -69 -8 -4 -63 -9 -122
-12 -87 -4 -108 -8 -108 -19 0 -13 18 -15 111 -11 107 3 110 3 106 -17 -3 -11
-10 -45 -17 -75 -16 -76 -91 -186 -152 -225 -47 -30 -62 -55 -32 -55 9 0 47
31 84 68 l68 68 5 -46 c13 -108 55 -130 94 -50 12 25 42 88 66 141 58 126 109
167 150 121 22 -24 21 -49 -4 -143 -32 -114 -11 -154 78 -151 45 2 82 23 131
74 l42 43 0 -36 c0 -22 8 -47 21 -63 17 -22 29 -26 68 -26 51 0 96 25 154 88
25 26 34 29 68 25 40 -6 91 9 122 35 16 14 17 12 17 -30 0 -66 33 -112 84
-116 53 -5 88 12 136 64 22 24 43 44 45 44 3 0 5 -13 5 -29 0 -15 9 -40 21
-55 17 -21 29 -26 65 -26 56 0 87 16 142 73 41 42 46 44 90 40 34 -3 58 1 85
15 20 11 37 17 37 12 0 -4 -9 -33 -20 -64 l-19 -57 25 -9 c37 -14 40 -13 54
23 29 71 108 193 167 254 51 54 67 64 90 61 43 -5 43 -56 -3 -201 -32 -100
-36 -120 -23 -128 29 -18 45 -6 92 74 89 152 145 215 180 202 25 -10 28 -48 7
-121 -25 -87 -25 -115 1 -148 40 -51 128 -30 191 46 25 30 27 31 28 11 0 -12
11 -35 25 -52 70 -83 218 -58 333 55 40 40 52 48 52 34 0 -32 31 -100 51 -110
10 -6 31 -10 48 -10 40 0 95 54 144 141 l36 64 0 -83 c-1 -102 14 -132 65
-132 44 0 121 68 171 151 36 58 55 74 55 45 0 -8 10 -27 23 -41 30 -35 83 -42
122 -17 35 22 70 78 56 87 -6 3 -17 -8 -26 -25 -20 -40 -68 -64 -96 -50 -43
24 -50 88 -17 186 23 71 19 96 -19 102 -28 4 -42 -17 -54 -84 -15 -78 -35
-125 -90 -209 -110 -170 -155 -121 -113 124 17 101 15 121 -15 121 -16 0 -24
-13 -39 -63 -21 -71 -86 -188 -131 -236 -23 -24 -37 -32 -58 -29 -58 6 -53
124 11 264 25 54 21 74 -14 74 -19 0 -60 -71 -85 -148 -21 -65 -115 -170 -180
-202 -48 -23 -111 -28 -142 -12 -25 14 -46 61 -41 97 3 25 11 30 76 51 144 47
222 124 222 220 0 45 -22 64 -76 64 -108 0 -236 -119 -284 -266 -29 -85 -93
-157 -137 -152 -23 2 -28 8 -31 35 -2 17 6 62 17 98 37 120 22 175 -48 175
-59 0 -117 -48 -178 -146 -7 -12 -6 4 4 41 19 74 13 153 -13 172 -56 41 -158
-26 -267 -177 l-17 -25 7 35 c4 19 7 53 8 75 0 33 -4 41 -20 43 -35 5 -54 -20
-66 -83 -12 -71 -29 -99 -72 -125 -32 -20 -92 -27 -101 -12 -2 4 10 37 27 72
38 80 48 167 23 205 -13 20 -25 25 -59 25 -23 0 -53 -7 -66 -16 -66 -46 -68
-206 -4 -276 15 -17 14 -21 -18 -54 -42 -44 -82 -66 -104 -58 -23 9 -36 48
-29 86 8 45 42 136 59 162 21 28 19 36 -8 36 -33 0 -69 -43 -113 -133 -45 -93
-108 -157 -153 -157 -44 0 -54 27 -49 122 l5 79 50 52 c140 143 281 419 270
530 -5 61 -23 81 -55 63z m8 -171 c-28 -92 -145 -296 -224 -390 -35 -41 -32
-18 10 89 64 160 140 299 198 364 l21 24 3 -23 c2 -13 -2 -41 -8 -64z m-1010
60 c0 -42 -74 -182 -136 -256 -58 -71 -68 -69 -39 8 30 79 62 137 117 211 39
52 58 65 58 37z m2448 -380 c5 -57 -83 -147 -193 -197 -39 -18 -42 -2 -11 58
71 136 196 221 204 139z m-1923 14 c17 -26 5 -113 -22 -168 -15 -31 -32 -56
-38 -56 -31 1 -50 139 -26 184 25 45 70 67 86 40z m725 -15 c6 -15 8 -43 4
-63 -8 -44 -54 -151 -65 -151 -19 0 -39 62 -39 119 0 49 4 65 26 90 32 38 61
40 74 5z"/>
<path d="M4503 1535 c-138 -37 -253 -175 -253 -303 0 -89 35 -132 180 -222
147 -92 189 -146 177 -231 -12 -87 -101 -149 -217 -149 -102 0 -161 41 -180
126 -11 49 3 117 35 166 l24 36 -36 -10 c-82 -22 -113 -65 -113 -153 0 -70 17
-112 63 -152 113 -99 331 -77 438 45 75 86 79 192 8 282 -15 19 -77 66 -138
104 -114 70 -156 109 -167 152 -14 55 21 141 84 208 68 71 188 109 226 70 24
-23 20 -62 -19 -168 -37 -104 -42 -135 -23 -154 23 -23 36 -11 73 71 28 60 39
100 43 149 6 79 -10 111 -63 134 -42 17 -74 17 -142 -1z"/>
<path d="M7957 1530 c-35 -28 -102 -163 -190 -382 -92 -229 -134 -306 -208
-380 -61 -61 -102 -75 -129 -43 -34 40 28 202 109 285 54 56 119 82 153 61 18
-11 19 -10 16 11 -3 20 -10 23 -50 26 -94 6 -208 -88 -286 -236 -61 -116 -137
-180 -203 -170 -35 5 -35 35 1 125 45 110 39 142 -35 210 -56 51 -57 53 -50
92 5 33 4 41 -9 41 -24 0 -50 -49 -49 -91 3 -66 -70 -225 -137 -302 -60 -68
-131 -107 -197 -107 -44 0 -55 4 -72 26 -14 18 -21 41 -21 69 0 42 1 43 38 50
98 17 208 90 241 158 41 84 19 137 -55 137 -59 0 -103 -20 -160 -72 -58 -53
-107 -127 -129 -196 -20 -59 -80 -134 -124 -151 -41 -18 -67 -1 -97 62 -34 73
-32 81 22 95 52 14 109 64 119 105 17 65 -31 127 -97 127 -81 0 -141 -58 -219
-213 -42 -86 -49 -94 -49 -65 1 94 57 272 97 306 116 99 170 171 204 277 25
74 19 129 -14 149 -55 33 -241 -290 -331 -574 -40 -124 -55 -156 -98 -205 -61
-70 -168 -112 -218 -85 -38 20 -53 73 -40 138 24 113 118 242 179 242 16 0 31
-6 34 -14 7 -18 -10 -83 -23 -91 -29 -18 10 -41 40 -25 25 13 39 66 28 105
-12 46 -45 68 -91 61 -89 -15 -170 -84 -214 -185 -44 -99 -47 -105 -93 -152
-67 -68 -141 -73 -153 -12 -9 47 11 111 71 225 43 80 54 110 46 118 -15 15
-49 5 -76 -23 -11 -12 -36 -56 -55 -97 -86 -186 -133 -252 -189 -266 -55 -14
-63 35 -23 139 23 57 24 118 4 156 -41 81 -157 42 -259 -86 -27 -35 -51 -61
-52 -60 -2 2 4 26 12 55 21 72 16 106 -17 110 -35 4 -48 -15 -64 -91 -7 -35
-27 -99 -44 -142 -32 -84 -30 -105 14 -105 16 0 32 15 59 59 59 97 126 180
165 206 39 27 80 32 99 13 16 -16 15 -83 -3 -142 -21 -68 -19 -93 10 -121 45
-46 133 -22 194 52 l31 38 0 -30 c0 -17 11 -43 24 -59 20 -26 30 -30 72 -30
59 1 102 21 153 74 l38 40 7 -41 c5 -28 18 -53 40 -75 30 -30 40 -34 88 -34
75 0 144 36 213 113 l55 60 0 -60 c0 -66 13 -87 52 -81 18 2 29 20 58 98 48
126 86 194 132 236 44 39 94 46 121 16 45 -50 -2 -110 -115 -146 -36 -11 -11
-131 38 -183 52 -55 125 -39 192 43 l28 34 17 -39 c25 -55 59 -75 132 -76 77
0 153 36 222 105 39 38 64 80 109 175 32 69 62 125 65 125 3 0 18 -12 33 -26
35 -35 34 -76 -4 -171 -37 -92 -39 -147 -7 -167 61 -38 121 -27 202 40 l55 44
0 -30 c0 -19 9 -40 25 -55 63 -64 164 -6 288 165 14 20 17 21 12 5 -4 -11 -9
-47 -12 -80 -4 -50 -2 -64 15 -85 38 -47 122 -27 201 48 l39 37 6 -38 c18
-110 147 -102 254 16 34 38 47 102 18 91 -23 -9 -50 77 -42 133 5 41 13 58 51
109 14 20 -2 29 -32 18 -36 -12 -73 -84 -73 -141 0 -48 19 -100 50 -140 l20
-26 -22 -25 c-82 -87 -148 -88 -148 -3 0 44 31 138 61 187 l21 34 -25 0 c-37
0 -73 -34 -103 -98 -34 -74 -67 -117 -117 -153 -83 -60 -108 -31 -87 99 19
122 46 190 224 577 50 110 52 117 32 134 -10 8 -19 6 -39 -9z m-1593 -117
c-12 -57 -67 -154 -116 -208 -28 -31 -53 -54 -55 -51 -5 5 69 154 105 210 51
80 78 99 66 49z m479 -347 c11 -28 -14 -84 -55 -124 -37 -37 -178 -122 -178
-107 0 18 36 86 75 140 56 79 144 129 158 91z"/>
<path d="M79 1390 c-9 -5 -31 -32 -48 -58 -28 -45 -31 -56 -31 -133 l0 -84 35
65 c77 142 98 188 92 204 -7 18 -24 20 -48 6z"/>
<path d="M5537 1280 c-32 -25 -35 -55 -7 -70 42 -22 105 17 98 62 -4 32 -54
37 -91 8z"/>
</g>
</svg>
