<svg xmlns="http://www.w3.org/2000/svg" xmlns:xlink="http://www.w3.org/1999/xlink" viewBox="8 10.443717956542969 390 160.3062744140625" width="486.56860303876937" height="200"><path d="M 19.000,56.750 C 16.509,54.517 17.000,54.250 15.000,51.750" stroke-width="5.403" stroke="black" fill="none" stroke-linecap="round"></path><path d="M 15.000,51.750 C 13.236,48.819 13.509,49.017 13.000,45.750" stroke-width="5.083" stroke="black" fill="none" stroke-linecap="round"></path><path d="M 13.000,45.750 C 13.148,42.156 12.736,42.319 14.000,38.750" stroke-width="4.759" stroke="black" fill="none" stroke-linecap="round"></path><path d="M 14.000,38.750 C 14.487,35.912 14.648,36.156 16.000,33.750" stroke-width="4.964" stroke="black" fill="none" stroke-linecap="round"></path><path d="M 16.000,33.750 C 18.376,31.112 17.987,30.912 21.000,28.750" stroke-width="5.040" stroke="black" fill="none" stroke-linecap="round"></path><path d="M 21.000,28.750 C 23.383,26.582 23.376,26.612 26.000,24.750" stroke-width="4.788" stroke="black" fill="none" stroke-linecap="round"></path><path d="M 26.000,24.750 C 28.401,23.050 28.383,23.082 31.000,21.750" stroke-width="4.767" stroke="black" fill="none" stroke-linecap="round"></path><path d="M 31.000,21.750 C 33.449,20.600 33.401,20.550 36.000,19.750" stroke-width="4.974" stroke="black" fill="none" stroke-linecap="round"></path><path d="M 36.000,19.750 C 39.449,18.511 39.449,18.600 43.000,17.750" stroke-width="4.693" stroke="black" fill="none" stroke-linecap="round"></path><path d="M 43.000,17.750 C 46.514,17.331 46.449,17.011 50.000,16.750" stroke-width="4.847" stroke="black" fill="none" stroke-linecap="round"></path><path d="M 50.000,16.750 C 52.473,15.980 52.514,16.331 55.000,15.750" stroke-width="4.850" stroke="black" fill="none" stroke-linecap="round"></path><path d="M 55.000,15.750 C 58.101,15.223 57.973,15.480 61.000,15.750" stroke-width="4.962" stroke="black" fill="none" stroke-linecap="round"></path><path d="M 61.000,15.750 C 63.432,16.980 63.601,16.223 66.000,17.750" stroke-width="5.029" stroke="black" fill="none" stroke-linecap="round"></path><path d="M 66.000,17.750 C 69.134,17.350 68.432,18.480 71.000,18.750" stroke-width="5.279" stroke="black" fill="none" stroke-linecap="round"></path><path d="M 71.000,18.750 C 71.866,22.150 73.134,20.350 74.000,23.750" stroke-width="5.500" stroke="black" fill="none" stroke-linecap="round"></path><path d="M 74.000,23.750 C 76.473,24.520 75.866,25.150 79.000,24.750" stroke-width="5.390" stroke="black" fill="none" stroke-linecap="round"></path><path d="M 79.000,24.750 C 82.000,24.750 81.973,25.020 85.000,24.750" stroke-width="5.361" stroke="black" fill="none" stroke-linecap="round"></path><path d="M 72.000,27.750 C 70.648,30.156 71.000,30.250 70.000,32.750" stroke-width="5.586" stroke="black" fill="none" stroke-linecap="round"></path><path d="M 70.000,32.750 C 69.792,36.319 69.148,36.156 69.000,39.750" stroke-width="5.279" stroke="black" fill="none" stroke-linecap="round"></path><path d="M 69.000,39.750 C 67.765,42.692 68.292,42.819 67.000,45.750" stroke-width="4.839" stroke="black" fill="none" stroke-linecap="round"></path><path d="M 67.000,45.750 C 66.462,48.744 66.265,48.692 66.000,51.750" stroke-width="4.330" stroke="black" fill="none" stroke-linecap="round"></path><path d="M 66.000,51.750 C 65.538,55.256 65.462,55.244 65.000,58.750" stroke-width="4.520" stroke="black" fill="none" stroke-linecap="round"></path><path d="M 65.000,58.750 C 64.430,61.740 64.538,61.756 64.000,64.750" stroke-width="4.199" stroke="black" fill="none" stroke-linecap="round"></path><path d="M 64.000,64.750 C 63.570,68.760 63.430,68.740 63.000,72.750" stroke-width="4.419" stroke="black" fill="none" stroke-linecap="round"></path><path d="M 63.000,72.750 C 62.544,75.758 62.570,75.760 62.000,78.750" stroke-width="4.173" stroke="black" fill="none" stroke-linecap="round"></path><path d="M 62.000,78.750 C 61.573,81.266 61.544,81.258 61.000,83.750" stroke-width="4.237" stroke="black" fill="none" stroke-linecap="round"></path><path d="M 61.000,83.750 C 60.210,87.818 60.073,87.766 59.000,91.750" stroke-width="4.418" stroke="black" fill="none" stroke-linecap="round"></path><path d="M 59.000,91.750 C 58.000,94.250 58.210,94.318 57.000,96.750" stroke-width="4.688" stroke="black" fill="none" stroke-linecap="round"></path><path d="M 57.000,96.750 C 55.473,99.149 56.000,99.250 55.000,101.750" stroke-width="4.791" stroke="black" fill="none" stroke-linecap="round"></path><path d="M 55.000,101.750 C 55.248,104.771 54.473,104.649 55.000,107.750" stroke-width="4.769" stroke="black" fill="none" stroke-linecap="round"></path><path d="M 55.000,107.750 C 54.462,110.744 54.748,110.771 54.000,113.750" stroke-width="4.755" stroke="black" fill="none" stroke-linecap="round"></path><path d="M 54.000,113.750 C 53.538,117.256 53.462,117.244 53.000,120.750" stroke-width="4.891" stroke="black" fill="none" stroke-linecap="round"></path><path d="M 53.000,120.750 C 52.462,123.744 52.538,123.756 52.000,126.750" stroke-width="4.791" stroke="black" fill="none" stroke-linecap="round"></path><path d="M 52.000,126.750 C 51.581,130.264 51.462,130.244 51.000,133.750" stroke-width="4.661" stroke="black" fill="none" stroke-linecap="round"></path><path d="M 51.000,133.750 C 50.802,136.344 50.581,136.264 50.000,138.750" stroke-width="4.807" stroke="black" fill="none" stroke-linecap="round"></path><path d="M 50.000,138.750 C 48.464,142.235 48.802,142.344 47.000,145.750" stroke-width="4.859" stroke="black" fill="none" stroke-linecap="round"></path><path d="M 47.000,145.750 C 46.000,148.250 45.964,148.235 45.000,150.750" stroke-width="4.828" stroke="black" fill="none" stroke-linecap="round"></path><path d="M 45.000,150.750 C 44.463,153.555 44.000,153.250 43.000,155.750" stroke-width="4.833" stroke="black" fill="none" stroke-linecap="round"></path><path d="M 43.000,155.750 C 41.216,158.027 41.463,158.055 39.000,159.750" stroke-width="4.971" stroke="black" fill="none" stroke-linecap="round"></path><path d="M 39.000,159.750 C 36.500,161.250 36.716,161.527 34.000,162.750" stroke-width="5.167" stroke="black" fill="none" stroke-linecap="round"></path><path d="M 34.000,162.750 C 31.599,165.490 31.500,164.250 29.000,165.750" stroke-width="5.266" stroke="black" fill="none" stroke-linecap="round"></path><path d="M 29.000,165.750 C 26.041,165.382 26.599,165.990 24.000,163.750" stroke-width="5.283" stroke="black" fill="none" stroke-linecap="round"></path><path d="M 24.000,163.750 C 20.934,161.065 21.041,161.382 19.000,157.750" stroke-width="5.103" stroke="black" fill="none" stroke-linecap="round"></path><path d="M 19.000,157.750 C 17.830,154.795 17.434,155.065 17.000,151.750" stroke-width="5.026" stroke="black" fill="none" stroke-linecap="round"></path><path d="M 17.000,151.750 C 16.419,149.264 16.330,149.295 16.000,146.750" stroke-width="4.903" stroke="black" fill="none" stroke-linecap="round"></path><path d="M 16.000,146.750 C 15.581,143.236 15.419,143.264 15.000,139.750" stroke-width="4.912" stroke="black" fill="none" stroke-linecap="round"></path><path d="M 59.000,98.750 C 61.473,98.066 61.500,98.250 64.000,97.750" stroke-width="5.423" stroke="black" fill="none" stroke-linecap="round"></path><path d="M 64.000,97.750 C 69.489,97.001 69.473,97.066 75.000,96.750" stroke-width="4.490" stroke="black" fill="none" stroke-linecap="round"></path><path d="M 75.000,96.750 C 80.500,96.750 80.489,96.501 86.000,96.750" stroke-width="4.550" stroke="black" fill="none" stroke-linecap="round"></path><path d="M 86.000,96.750 C 90.000,96.750 90.000,96.750 94.000,96.750" stroke-width="4.755" stroke="black" fill="none" stroke-linecap="round"></path><path d="M 94.000,96.750 C 97.000,96.750 97.000,96.750 100.000,96.750" stroke-width="5.088" stroke="black" fill="none" stroke-linecap="round"></path><path d="M 100.000,96.750 C 103.000,96.750 103.000,96.750 106.000,96.750" stroke-width="5.126" stroke="black" fill="none" stroke-linecap="round"></path><path d="M 106.000,96.750 C 109.000,96.750 109.000,96.750 112.000,96.750" stroke-width="5.221" stroke="black" fill="none" stroke-linecap="round"></path><path d="M 112.000,96.750 C 115.569,96.260 115.500,96.750 119.000,96.750" stroke-width="5.190" stroke="black" fill="none" stroke-linecap="round"></path><path d="M 123.000,33.750 C 121.198,37.156 121.500,37.250 120.000,40.750" stroke-width="5.227" stroke="black" fill="none" stroke-linecap="round"></path><path d="M 120.000,40.750 C 119.699,43.303 119.198,43.156 119.000,45.750" stroke-width="4.563" stroke="black" fill="none" stroke-linecap="round"></path><path d="M 119.000,45.750 C 116.919,50.156 117.699,50.303 116.000,54.750" stroke-width="4.404" stroke="black" fill="none" stroke-linecap="round"></path><path d="M 116.000,54.750 C 116.547,57.830 115.419,57.656 116.000,60.750" stroke-width="4.228" stroke="black" fill="none" stroke-linecap="round"></path><path d="M 116.000,60.750 C 114.344,65.711 115.047,65.830 113.000,70.750" stroke-width="4.214" stroke="black" fill="none" stroke-linecap="round"></path><path d="M 113.000,70.750 C 112.337,73.226 112.344,73.211 112.000,75.750" stroke-width="4.250" stroke="black" fill="none" stroke-linecap="round"></path><path d="M 112.000,75.750 C 111.663,80.774 111.337,80.726 111.000,85.750" stroke-width="4.293" stroke="black" fill="none" stroke-linecap="round"></path><path d="M 111.000,85.750 C 110.500,88.250 110.663,88.274 110.000,90.750" stroke-width="4.317" stroke="black" fill="none" stroke-linecap="round"></path><path d="M 110.000,90.750 C 109.419,93.236 109.500,93.250 109.000,95.750" stroke-width="4.664" stroke="black" fill="none" stroke-linecap="round"></path><path d="M 109.000,95.750 C 108.581,99.264 108.419,99.236 108.000,102.750" stroke-width="4.837" stroke="black" fill="none" stroke-linecap="round"></path><path d="M 108.000,102.750 C 107.230,105.223 107.581,105.264 107.000,107.750" stroke-width="4.862" stroke="black" fill="none" stroke-linecap="round"></path><path d="M 107.000,107.750 C 107.270,110.777 106.730,110.723 107.000,113.750" stroke-width="4.958" stroke="black" fill="none" stroke-linecap="round"></path><path d="M 107.000,113.750 C 106.230,116.223 106.770,116.277 106.000,118.750" stroke-width="5.046" stroke="black" fill="none" stroke-linecap="round"></path><path d="M 106.000,118.750 C 106.270,121.777 105.730,121.723 106.000,124.750" stroke-width="5.286" stroke="black" fill="none" stroke-linecap="round"></path><path d="M 106.000,124.750 C 105.230,127.223 105.770,127.277 105.000,129.750" stroke-width="5.490" stroke="black" fill="none" stroke-linecap="round"></path><path d="M 105.000,129.750 C 105.000,132.750 104.730,132.723 105.000,135.750" stroke-width="5.460" stroke="black" fill="none" stroke-linecap="round"></path><path d="M 105.000,135.750 C 104.730,138.777 105.000,138.750 105.000,141.750" stroke-width="5.441" stroke="black" fill="none" stroke-linecap="round"></path><path d="M 105.000,141.750 C 105.270,144.318 105.230,144.277 106.000,146.750" stroke-width="5.390" stroke="black" fill="none" stroke-linecap="round"></path><path d="M 106.000,146.750 C 106.800,149.349 106.770,149.318 108.000,151.750" stroke-width="5.349" stroke="black" fill="none" stroke-linecap="round"></path><path d="M 108.000,151.750 C 109.000,154.750 109.300,154.349 111.000,156.750" stroke-width="5.379" stroke="black" fill="none" stroke-linecap="round"></path><path d="M 111.000,156.750 C 113.401,158.450 113.000,158.750 116.000,159.750" stroke-width="5.374" stroke="black" fill="none" stroke-linecap="round"></path><path d="M 116.000,159.750 C 118.417,161.046 118.401,160.950 121.000,161.750" stroke-width="5.420" stroke="black" fill="none" stroke-linecap="round"></path><path d="M 149.000,120.750 C 145.331,122.160 146.000,122.750 143.000,124.750" stroke-width="5.367" stroke="black" fill="none" stroke-linecap="round"></path><path d="M 143.000,124.750 C 141.387,127.699 140.831,127.160 140.000,130.750" stroke-width="5.176" stroke="black" fill="none" stroke-linecap="round"></path><path d="M 140.000,130.750 C 139.000,133.250 138.887,133.199 138.000,135.750" stroke-width="5.185" stroke="black" fill="none" stroke-linecap="round"></path><path d="M 138.000,135.750 C 136.851,138.198 137.000,138.250 136.000,140.750" stroke-width="4.920" stroke="black" fill="none" stroke-linecap="round"></path><path d="M 136.000,140.750 C 133.953,145.670 134.351,145.698 133.000,150.750" stroke-width="5.070" stroke="black" fill="none" stroke-linecap="round"></path><path d="M 133.000,150.750 C 131.507,154.617 132.453,153.670 133.000,156.750" stroke-width="5.121" stroke="black" fill="none" stroke-linecap="round"></path><path d="M 133.000,156.750 C 136.357,159.069 135.007,159.617 140.000,160.750" stroke-width="5.039" stroke="black" fill="none" stroke-linecap="round"></path><path d="M 140.000,160.750 C 143.088,162.993 142.857,162.069 146.000,162.750" stroke-width="4.999" stroke="black" fill="none" stroke-linecap="round"></path><path d="M 146.000,162.750 C 149.442,161.797 149.088,162.493 152.000,159.750" stroke-width="5.068" stroke="black" fill="none" stroke-linecap="round"></path><path d="M 152.000,159.750 C 154.689,157.591 154.442,157.797 156.000,154.750" stroke-width="4.994" stroke="black" fill="none" stroke-linecap="round"></path><path d="M 156.000,154.750 C 157.492,150.811 157.689,151.091 158.000,146.750" stroke-width="4.877" stroke="black" fill="none" stroke-linecap="round"></path><path d="M 158.000,146.750 C 158.284,142.726 158.492,142.811 158.000,138.750" stroke-width="4.838" stroke="black" fill="none" stroke-linecap="round"></path><path d="M 158.000,138.750 C 158.021,135.558 157.784,135.726 157.000,132.750" stroke-width="4.945" stroke="black" fill="none" stroke-linecap="round"></path><path d="M 157.000,132.750 C 155.500,130.250 156.021,130.058 154.000,127.750" stroke-width="4.986" stroke="black" fill="none" stroke-linecap="round"></path><path d="M 154.000,127.750 C 152.777,125.034 152.500,125.250 151.000,122.750" stroke-width="5.015" stroke="black" fill="none" stroke-linecap="round"></path><path d="M 165.000,120.750 C 164.570,124.760 164.500,124.750 164.000,128.750" stroke-width="5.330" stroke="black" fill="none" stroke-linecap="round"></path><path d="M 164.000,128.750 C 163.500,131.750 163.570,131.760 163.000,134.750" stroke-width="4.910" stroke="black" fill="none" stroke-linecap="round"></path><path d="M 163.000,134.750 C 162.252,137.729 162.500,137.750 162.000,140.750" stroke-width="4.295" stroke="black" fill="none" stroke-linecap="round"></path><path d="M 162.000,140.750 C 162.270,143.777 161.752,143.729 162.000,146.750" stroke-width="4.595" stroke="black" fill="none" stroke-linecap="round"></path><path d="M 162.000,146.750 C 160.757,149.318 161.770,149.277 161.000,151.750" stroke-width="5.054" stroke="black" fill="none" stroke-linecap="round"></path><path d="M 161.000,151.750 C 162.000,154.250 161.257,154.318 163.000,156.750" stroke-width="5.305" stroke="black" fill="none" stroke-linecap="round"></path><path d="M 163.000,156.750 C 163.250,161.000 164.000,159.250 165.000,161.750" stroke-width="5.448" stroke="black" fill="none" stroke-linecap="round"></path><path d="M 165.000,161.750 C 168.459,161.548 166.750,162.500 170.000,159.750" stroke-width="5.551" stroke="black" fill="none" stroke-linecap="round"></path><path d="M 170.000,159.750 C 170.500,157.250 171.459,158.048 171.000,154.750" stroke-width="5.224" stroke="black" fill="none" stroke-linecap="round"></path><path d="M 171.000,154.750 C 171.770,152.277 171.500,152.250 172.000,149.750" stroke-width="4.973" stroke="black" fill="none" stroke-linecap="round"></path><path d="M 172.000,149.750 C 171.752,146.729 172.270,146.777 172.000,143.750" stroke-width="4.992" stroke="black" fill="none" stroke-linecap="round"></path><path d="M 172.000,143.750 C 172.456,140.742 172.252,140.729 173.000,137.750" stroke-width="5.000" stroke="black" fill="none" stroke-linecap="round"></path><path d="M 173.000,137.750 C 173.770,135.277 173.456,135.242 174.000,132.750" stroke-width="5.059" stroke="black" fill="none" stroke-linecap="round"></path><path d="M 174.000,132.750 C 173.513,126.750 174.270,129.777 174.000,126.750" stroke-width="5.179" stroke="black" fill="none" stroke-linecap="round"></path><path d="M 174.000,126.750 C 175.525,129.665 174.513,126.750 176.000,132.750" stroke-width="5.410" stroke="black" fill="none" stroke-linecap="round"></path><path d="M 176.000,132.750 C 176.000,136.250 176.525,136.165 176.000,139.750" stroke-width="4.808" stroke="black" fill="none" stroke-linecap="round"></path><path d="M 176.000,139.750 C 175.752,142.771 176.000,142.750 176.000,145.750" stroke-width="4.758" stroke="black" fill="none" stroke-linecap="round"></path><path d="M 176.000,145.750 C 176.456,148.758 176.252,148.771 177.000,151.750" stroke-width="4.752" stroke="black" fill="none" stroke-linecap="round"></path><path d="M 177.000,151.750 C 177.270,154.318 177.456,154.258 178.000,156.750" stroke-width="4.980" stroke="black" fill="none" stroke-linecap="round"></path><path d="M 178.000,156.750 C 178.290,161.536 178.770,159.318 180.000,161.750" stroke-width="5.048" stroke="black" fill="none" stroke-linecap="round"></path><path d="M 180.000,161.750 C 183.710,160.326 182.290,162.036 186.000,157.750" stroke-width="5.350" stroke="black" fill="none" stroke-linecap="round"></path><path d="M 186.000,157.750 C 186.630,155.034 187.710,155.826 188.000,152.750" stroke-width="4.979" stroke="black" fill="none" stroke-linecap="round"></path><path d="M 188.000,152.750 C 190.491,150.517 189.630,150.034 192.000,147.750" stroke-width="4.968" stroke="black" fill="none" stroke-linecap="round"></path><path d="M 192.000,147.750 C 193.000,141.750 193.491,145.017 194.000,141.750" stroke-width="4.969" stroke="black" fill="none" stroke-linecap="round"></path><path d="M 194.000,141.750 C 195.341,144.673 195.000,141.750 196.000,147.750" stroke-width="5.275" stroke="black" fill="none" stroke-linecap="round"></path><path d="M 196.000,147.750 C 196.387,151.768 196.841,151.673 197.000,155.750" stroke-width="4.945" stroke="black" fill="none" stroke-linecap="round"></path><path d="M 197.000,155.750 C 196.964,160.957 197.387,158.268 198.000,160.750" stroke-width="5.049" stroke="black" fill="none" stroke-linecap="round"></path><path d="M 198.000,160.750 C 200.507,157.985 199.464,160.457 202.000,154.750" stroke-width="5.327" stroke="black" fill="none" stroke-linecap="round"></path><path d="M 202.000,154.750 C 202.699,151.133 203.507,151.485 204.000,147.750" stroke-width="4.803" stroke="black" fill="none" stroke-linecap="round"></path><path d="M 204.000,147.750 C 205.613,144.801 205.199,144.633 207.000,141.750" stroke-width="4.729" stroke="black" fill="none" stroke-linecap="round"></path><path d="M 207.000,141.750 C 207.717,139.101 208.113,139.301 209.000,136.750" stroke-width="4.789" stroke="black" fill="none" stroke-linecap="round"></path><path d="M 209.000,136.750 C 211.283,133.899 210.717,133.601 213.000,130.750" stroke-width="4.648" stroke="black" fill="none" stroke-linecap="round"></path><path d="M 210.000,160.750 C 212.402,157.946 212.000,157.750 214.000,154.750" stroke-width="5.468" stroke="black" fill="none" stroke-linecap="round"></path><path d="M 214.000,154.750 C 214.920,151.721 215.402,151.946 216.000,148.750" stroke-width="4.904" stroke="black" fill="none" stroke-linecap="round"></path><path d="M 216.000,148.750 C 217.033,146.263 216.920,146.221 218.000,143.750" stroke-width="4.444" stroke="black" fill="none" stroke-linecap="round"></path><path d="M 218.000,143.750 C 219.747,139.821 219.533,139.763 221.000,135.750" stroke-width="4.441" stroke="black" fill="none" stroke-linecap="round"></path><path d="M 221.000,135.750 C 221.344,133.211 221.747,133.321 222.000,130.750" stroke-width="4.317" stroke="black" fill="none" stroke-linecap="round"></path><path d="M 222.000,130.750 C 223.656,125.789 223.344,125.711 225.000,120.750" stroke-width="4.286" stroke="black" fill="none" stroke-linecap="round"></path><path d="M 225.000,120.750 C 225.427,118.234 225.656,118.289 226.000,115.750" stroke-width="4.224" stroke="black" fill="none" stroke-linecap="round"></path><path d="M 226.000,115.750 C 227.137,111.778 226.927,111.734 228.000,107.750" stroke-width="4.395" stroke="black" fill="none" stroke-linecap="round"></path><path d="M 228.000,107.750 C 228.456,104.742 228.637,104.778 229.000,101.750" stroke-width="4.166" stroke="black" fill="none" stroke-linecap="round"></path><path d="M 229.000,101.750 C 229.382,99.221 229.456,99.242 230.000,96.750" stroke-width="4.235" stroke="black" fill="none" stroke-linecap="round"></path><path d="M 230.000,96.750 C 230.930,93.228 230.882,93.221 232.000,89.750" stroke-width="4.490" stroke="black" fill="none" stroke-linecap="round"></path><path d="M 232.000,89.750 C 233.170,86.795 232.930,86.728 234.000,83.750" stroke-width="4.633" stroke="black" fill="none" stroke-linecap="round"></path><path d="M 234.000,83.750 C 234.500,81.250 234.670,81.295 235.000,78.750" stroke-width="4.784" stroke="black" fill="none" stroke-linecap="round"></path><path d="M 228.000,124.750 C 232.456,121.112 232.000,120.750 236.000,116.750" stroke-width="5.277" stroke="black" fill="none" stroke-linecap="round"></path><path d="M 236.000,116.750 C 238.662,112.841 238.956,113.112 241.000,108.750" stroke-width="4.587" stroke="black" fill="none" stroke-linecap="round"></path><path d="M 241.000,108.750 C 242.152,105.522 242.662,105.841 244.000,102.750" stroke-width="4.631" stroke="black" fill="none" stroke-linecap="round"></path><path d="M 244.000,102.750 C 246.390,99.650 246.152,99.522 249.000,96.750" stroke-width="4.554" stroke="black" fill="none" stroke-linecap="round"></path><path d="M 229.000,126.750 C 228.442,130.841 229.000,130.750 229.000,134.750" stroke-width="5.343" stroke="black" fill="none" stroke-linecap="round"></path><path d="M 229.000,134.750 C 230.000,137.750 229.442,137.841 231.000,140.750" stroke-width="4.891" stroke="black" fill="none" stroke-linecap="round"></path><path d="M 231.000,140.750 C 232.235,143.692 232.000,143.750 233.000,146.750" stroke-width="4.770" stroke="black" fill="none" stroke-linecap="round"></path><path d="M 233.000,146.750 C 233.204,149.833 233.735,149.692 234.000,152.750" stroke-width="4.924" stroke="black" fill="none" stroke-linecap="round"></path><path d="M 234.000,152.750 C 235.230,155.182 234.704,155.333 236.000,157.750" stroke-width="5.110" stroke="black" fill="none" stroke-linecap="round"></path><path d="M 281.000,88.750 C 279.533,92.763 279.500,92.750 278.000,96.750" stroke-width="5.220" stroke="black" fill="none" stroke-linecap="round"></path><path d="M 278.000,96.750 C 276.850,99.199 277.033,99.263 276.000,101.750" stroke-width="4.468" stroke="black" fill="none" stroke-linecap="round"></path><path d="M 276.000,101.750 C 274.761,105.199 274.850,105.199 274.000,108.750" stroke-width="4.565" stroke="black" fill="none" stroke-linecap="round"></path><path d="M 274.000,108.750 C 273.438,112.242 273.261,112.199 273.000,115.750" stroke-width="4.079" stroke="black" fill="none" stroke-linecap="round"></path><path d="M 273.000,115.750 C 272.282,120.238 272.438,120.242 272.000,124.750" stroke-width="4.288" stroke="black" fill="none" stroke-linecap="round"></path><path d="M 272.000,124.750 C 272.000,128.250 271.782,128.238 272.000,131.750" stroke-width="4.018" stroke="black" fill="none" stroke-linecap="round"></path><path d="M 272.000,131.750 C 272.000,134.750 272.000,134.750 272.000,137.750" stroke-width="4.115" stroke="black" fill="none" stroke-linecap="round"></path><path d="M 272.000,137.750 C 271.374,142.370 272.000,142.250 272.000,146.750" stroke-width="4.304" stroke="black" fill="none" stroke-linecap="round"></path><path d="M 272.000,146.750 C 272.487,149.588 272.374,149.370 274.000,151.750" stroke-width="4.649" stroke="black" fill="none" stroke-linecap="round"></path><path d="M 274.000,151.750 C 276.162,154.763 275.987,154.588 279.000,156.750" stroke-width="4.620" stroke="black" fill="none" stroke-linecap="round"></path><path d="M 279.000,156.750 C 281.391,158.315 281.162,158.263 284.000,158.750" stroke-width="4.911" stroke="black" fill="none" stroke-linecap="round"></path><path d="M 284.000,158.750 C 288.291,160.228 287.391,159.315 291.000,158.750" stroke-width="4.718" stroke="black" fill="none" stroke-linecap="round"></path><path d="M 291.000,158.750 C 293.738,156.032 293.791,157.228 295.000,152.750" stroke-width="4.646" stroke="black" fill="none" stroke-linecap="round"></path><path d="M 275.000,110.750 C 279.932,108.942 280.000,109.250 285.000,107.750" stroke-width="5.086" stroke="black" fill="none" stroke-linecap="round"></path><path d="M 285.000,107.750 C 288.481,106.985 288.432,106.942 292.000,106.750" stroke-width="4.194" stroke="black" fill="none" stroke-linecap="round"></path><path d="M 303.000,127.750 C 302.387,130.232 302.500,130.250 302.000,132.750" stroke-width="5.415" stroke="black" fill="none" stroke-linecap="round"></path><path d="M 302.000,132.750 C 301.251,136.734 301.387,136.732 301.000,140.750" stroke-width="4.756" stroke="black" fill="none" stroke-linecap="round"></path><path d="M 301.000,140.750 C 300.402,144.865 300.751,144.734 301.000,148.750" stroke-width="4.574" stroke="black" fill="none" stroke-linecap="round"></path><path d="M 301.000,148.750 C 301.320,151.829 301.402,151.365 303.000,153.750" stroke-width="4.740" stroke="black" fill="none" stroke-linecap="round"></path><path d="M 303.000,153.750 C 305.273,156.068 304.820,155.829 308.000,156.750" stroke-width="4.768" stroke="black" fill="none" stroke-linecap="round"></path><path d="M 308.000,156.750 C 311.727,157.568 311.273,157.568 315.000,156.750" stroke-width="4.678" stroke="black" fill="none" stroke-linecap="round"></path><path d="M 315.000,156.750 C 318.321,155.909 317.727,156.068 320.000,153.750" stroke-width="4.734" stroke="black" fill="none" stroke-linecap="round"></path><path d="M 320.000,153.750 C 321.000,150.750 321.821,151.409 322.000,147.750" stroke-width="4.708" stroke="black" fill="none" stroke-linecap="round"></path><path d="M 322.000,147.750 C 323.487,144.829 323.000,144.750 324.000,141.750" stroke-width="4.700" stroke="black" fill="none" stroke-linecap="round"></path><path d="M 344.000,122.750 C 341.025,125.459 341.500,125.750 339.000,128.750" stroke-width="5.261" stroke="black" fill="none" stroke-linecap="round"></path><path d="M 339.000,128.750 C 337.112,132.136 337.025,131.959 336.000,135.750" stroke-width="4.970" stroke="black" fill="none" stroke-linecap="round"></path><path d="M 336.000,135.750 C 335.500,138.750 335.112,138.636 335.000,141.750" stroke-width="5.036" stroke="black" fill="none" stroke-linecap="round"></path><path d="M 335.000,141.750 C 334.544,144.758 334.500,144.750 334.000,147.750" stroke-width="5.005" stroke="black" fill="none" stroke-linecap="round"></path><path d="M 334.000,147.750 C 333.000,150.250 333.544,150.258 333.000,152.750" stroke-width="5.061" stroke="black" fill="none" stroke-linecap="round"></path><path d="M 333.000,152.750 C 332.815,155.617 333.000,155.250 334.000,157.750" stroke-width="5.085" stroke="black" fill="none" stroke-linecap="round"></path><path d="M 334.000,157.750 C 335.639,161.278 335.315,160.117 338.000,161.750" stroke-width="5.207" stroke="black" fill="none" stroke-linecap="round"></path><path d="M 338.000,161.750 C 341.515,161.489 340.639,162.278 344.000,159.750" stroke-width="5.215" stroke="black" fill="none" stroke-linecap="round"></path><path d="M 344.000,159.750 C 346.893,157.627 346.515,157.989 348.000,154.750" stroke-width="5.027" stroke="black" fill="none" stroke-linecap="round"></path><path d="M 348.000,154.750 C 348.732,150.764 349.393,151.127 349.000,146.750" stroke-width="4.888" stroke="black" fill="none" stroke-linecap="round"></path><path d="M 349.000,146.750 C 349.268,143.228 349.232,143.264 349.000,139.750" stroke-width="4.694" stroke="black" fill="none" stroke-linecap="round"></path><path d="M 349.000,139.750 C 348.544,136.742 348.768,136.728 348.000,133.750" stroke-width="4.717" stroke="black" fill="none" stroke-linecap="round"></path><path d="M 348.000,133.750 C 348.108,130.967 347.544,131.242 347.000,128.750" stroke-width="4.824" stroke="black" fill="none" stroke-linecap="round"></path><path d="M 354.000,127.750 C 352.278,131.171 352.500,131.250 351.000,134.750" stroke-width="5.252" stroke="black" fill="none" stroke-linecap="round"></path><path d="M 351.000,134.750 C 349.510,138.181 349.778,138.171 349.000,141.750" stroke-width="4.803" stroke="black" fill="none" stroke-linecap="round"></path><path d="M 349.000,141.750 C 348.768,145.264 348.510,145.181 349.000,148.750" stroke-width="4.670" stroke="black" fill="none" stroke-linecap="round"></path><path d="M 349.000,148.750 C 347.867,153.906 349.268,152.764 350.000,156.750" stroke-width="4.545" stroke="black" fill="none" stroke-linecap="round"></path><path d="M 350.000,156.750 C 353.860,159.158 352.367,159.906 358.000,160.750" stroke-width="4.841" stroke="black" fill="none" stroke-linecap="round"></path><path d="M 371.000,93.750 C 371.000,97.750 371.000,97.750 371.000,101.750" stroke-width="5.261" stroke="black" fill="none" stroke-linecap="round"></path><path d="M 371.000,101.750 C 371.289,105.279 371.000,105.250 371.000,108.750" stroke-width="4.239" stroke="black" fill="none" stroke-linecap="round"></path><path d="M 371.000,108.750 C 370.211,111.221 370.789,111.279 370.000,113.750" stroke-width="4.258" stroke="black" fill="none" stroke-linecap="round"></path><path d="M 370.000,113.750 C 370.249,117.268 369.711,117.221 370.000,120.750" stroke-width="4.010" stroke="black" fill="none" stroke-linecap="round"></path><path d="M 370.000,120.750 C 369.438,124.242 369.749,124.268 369.000,127.750" stroke-width="3.933" stroke="black" fill="none" stroke-linecap="round"></path><path d="M 369.000,127.750 C 368.640,132.272 368.438,132.242 368.000,136.750" stroke-width="4.258" stroke="black" fill="none" stroke-linecap="round"></path><path d="M 368.000,136.750 C 367.387,139.232 367.640,139.272 367.000,141.750" stroke-width="4.263" stroke="black" fill="none" stroke-linecap="round"></path><path d="M 367.000,141.750 C 366.700,145.785 366.387,145.732 366.000,149.750" stroke-width="4.422" stroke="black" fill="none" stroke-linecap="round"></path><path d="M 366.000,149.750 C 364.904,154.231 365.200,154.285 364.000,158.750" stroke-width="4.404" stroke="black" fill="none" stroke-linecap="round"></path><path d="M 373.000,132.750 C 372.856,129.495 373.500,129.750 374.000,126.750" stroke-width="5.475" stroke="black" fill="none" stroke-linecap="round"></path><path d="M 374.000,126.750 C 375.271,122.388 375.356,123.495 378.000,120.750" stroke-width="5.052" stroke="black" fill="none" stroke-linecap="round"></path><path d="M 378.000,120.750 C 381.859,119.144 380.271,119.388 384.000,120.750" stroke-width="5.031" stroke="black" fill="none" stroke-linecap="round"></path><path d="M 384.000,120.750 C 388.033,124.833 387.859,123.644 390.000,129.750" stroke-width="4.471" stroke="black" fill="none" stroke-linecap="round"></path><path d="M 390.000,129.750 C 391.029,135.245 392.033,134.833 392.000,140.750" stroke-width="4.279" stroke="black" fill="none" stroke-linecap="round"></path><path d="M 392.000,140.750 C 393.245,143.808 392.529,143.745 393.000,146.750" stroke-width="4.135" stroke="black" fill="none" stroke-linecap="round"></path><path d="M 393.000,146.750 C 391.930,149.728 392.745,149.808 391.000,152.750" stroke-width="4.693" stroke="black" fill="none" stroke-linecap="round"></path><path d="M 391.000,152.750 C 390.150,156.301 389.930,156.228 389.000,159.750" stroke-width="4.615" stroke="black" fill="none" stroke-linecap="round"></path><path d="M 389.000,159.750 C 387.920,162.221 388.150,162.301 387.000,164.750" stroke-width="5.231" stroke="black" fill="none" stroke-linecap="round"></path></svg>