<svg xmlns="http://www.w3.org/2000/svg" xmlns:xlink="http://www.w3.org/1999/xlink" viewBox="39.98678207397461 21.568248748779297 381.0132141113281 133.18174743652344" width="572.1703182981964" height="200"><path d="M 63.000,66.750 C 64.576,61.992 65.000,62.250 67.000,57.750" stroke-width="5.384" stroke="black" fill="none" stroke-linecap="round"></path><path d="M 67.000,57.750 C 68.744,55.006 68.576,54.992 71.000,52.750" stroke-width="4.405" stroke="black" fill="none" stroke-linecap="round"></path><path d="M 71.000,52.750 C 74.611,48.571 74.744,49.006 79.000,45.750" stroke-width="4.298" stroke="black" fill="none" stroke-linecap="round"></path><path d="M 79.000,45.750 C 81.955,44.027 81.611,44.071 85.000,43.750" stroke-width="4.570" stroke="black" fill="none" stroke-linecap="round"></path><path d="M 85.000,43.750 C 87.981,43.352 87.455,43.527 90.000,44.750" stroke-width="4.943" stroke="black" fill="none" stroke-linecap="round"></path><path d="M 90.000,44.750 C 93.711,49.121 94.481,47.852 98.000,52.750" stroke-width="4.390" stroke="black" fill="none" stroke-linecap="round"></path><path d="M 98.000,52.750 C 100.401,54.450 100.211,54.621 103.000,55.750" stroke-width="4.199" stroke="black" fill="none" stroke-linecap="round"></path><path d="M 103.000,55.750 C 105.802,58.712 105.401,56.950 108.000,57.750" stroke-width="4.638" stroke="black" fill="none" stroke-linecap="round"></path><path d="M 108.000,57.750 C 113.257,52.897 113.802,55.212 119.000,48.750" stroke-width="4.454" stroke="black" fill="none" stroke-linecap="round"></path><path d="M 119.000,48.750 C 122.765,47.122 122.257,46.397 126.000,44.750" stroke-width="3.929" stroke="black" fill="none" stroke-linecap="round"></path><path d="M 126.000,44.750 C 130.097,41.353 130.265,41.622 134.000,37.750" stroke-width="3.528" stroke="black" fill="none" stroke-linecap="round"></path><path d="M 134.000,37.750 C 137.152,32.486 136.597,35.353 139.000,32.750" stroke-width="4.235" stroke="black" fill="none" stroke-linecap="round"></path><path d="M 139.000,32.750 C 140.723,35.705 140.652,32.986 141.000,38.750" stroke-width="5.102" stroke="black" fill="none" stroke-linecap="round"></path><path d="M 141.000,38.750 C 140.456,41.242 141.223,41.205 140.000,43.750" stroke-width="4.966" stroke="black" fill="none" stroke-linecap="round"></path><path d="M 140.000,43.750 C 139.402,46.736 139.456,46.742 139.000,49.750" stroke-width="4.796" stroke="black" fill="none" stroke-linecap="round"></path><path d="M 139.000,49.750 C 139.029,54.377 138.402,54.236 138.000,58.750" stroke-width="4.543" stroke="black" fill="none" stroke-linecap="round"></path><path d="M 138.000,58.750 C 136.285,62.681 137.029,62.877 135.000,66.750" stroke-width="3.892" stroke="black" fill="none" stroke-linecap="round"></path><path d="M 135.000,66.750 C 133.382,72.222 133.285,72.181 132.000,77.750" stroke-width="4.067" stroke="black" fill="none" stroke-linecap="round"></path><path d="M 132.000,77.750 C 131.730,80.318 131.382,80.222 131.000,82.750" stroke-width="4.204" stroke="black" fill="none" stroke-linecap="round"></path><path d="M 131.000,82.750 C 130.036,85.265 130.230,85.318 129.000,87.750" stroke-width="4.207" stroke="black" fill="none" stroke-linecap="round"></path><path d="M 129.000,87.750 C 127.500,91.250 127.536,91.265 126.000,94.750" stroke-width="3.976" stroke="black" fill="none" stroke-linecap="round"></path><path d="M 126.000,94.750 C 124.464,98.235 124.500,98.250 123.000,101.750" stroke-width="3.859" stroke="black" fill="none" stroke-linecap="round"></path><path d="M 123.000,101.750 C 122.113,104.301 121.964,104.235 121.000,106.750" stroke-width="4.139" stroke="black" fill="none" stroke-linecap="round"></path><path d="M 121.000,106.750 C 119.287,109.662 119.613,109.801 118.000,112.750" stroke-width="4.014" stroke="black" fill="none" stroke-linecap="round"></path><path d="M 118.000,112.750 C 117.319,115.893 116.787,115.662 116.000,118.750" stroke-width="4.026" stroke="black" fill="none" stroke-linecap="round"></path><path d="M 116.000,118.750 C 114.031,122.268 114.319,122.393 112.000,125.750" stroke-width="4.360" stroke="black" fill="none" stroke-linecap="round"></path><path d="M 112.000,125.750 C 110.616,128.326 110.531,128.268 109.000,130.750" stroke-width="4.139" stroke="black" fill="none" stroke-linecap="round"></path><path d="M 109.000,130.750 C 106.744,134.457 106.616,134.326 104.000,137.750" stroke-width="4.341" stroke="black" fill="none" stroke-linecap="round"></path><path d="M 104.000,137.750 C 101.500,140.250 101.744,140.457 99.000,142.750" stroke-width="4.557" stroke="black" fill="none" stroke-linecap="round"></path><path d="M 99.000,142.750 C 97.305,145.213 97.000,144.750 95.000,146.750" stroke-width="4.216" stroke="black" fill="none" stroke-linecap="round"></path><path d="M 95.000,146.750 C 92.583,148.046 92.805,148.213 90.000,148.750" stroke-width="4.618" stroke="black" fill="none" stroke-linecap="round"></path><path d="M 90.000,148.750 C 86.957,150.098 87.083,149.546 84.000,149.750" stroke-width="4.709" stroke="black" fill="none" stroke-linecap="round"></path><path d="M 84.000,149.750 C 78.320,148.745 78.457,149.098 73.000,146.750" stroke-width="4.275" stroke="black" fill="none" stroke-linecap="round"></path><path d="M 73.000,146.750 C 66.247,144.186 66.320,144.245 60.000,140.750" stroke-width="4.022" stroke="black" fill="none" stroke-linecap="round"></path><path d="M 60.000,140.750 C 56.293,138.494 56.247,138.686 53.000,135.750" stroke-width="3.760" stroke="black" fill="none" stroke-linecap="round"></path><path d="M 53.000,135.750 C 49.848,133.653 50.293,133.494 48.000,130.750" stroke-width="3.858" stroke="black" fill="none" stroke-linecap="round"></path><path d="M 48.000,130.750 C 46.830,127.795 46.348,128.153 46.000,124.750" stroke-width="4.394" stroke="black" fill="none" stroke-linecap="round"></path><path d="M 46.000,124.750 C 44.777,122.205 45.330,122.295 45.000,119.750" stroke-width="4.303" stroke="black" fill="none" stroke-linecap="round"></path><path d="M 45.000,119.750 C 44.907,115.843 45.277,116.705 47.000,113.750" stroke-width="4.555" stroke="black" fill="none" stroke-linecap="round"></path><path d="M 47.000,113.750 C 51.285,110.636 50.407,110.343 56.000,108.750" stroke-width="4.341" stroke="black" fill="none" stroke-linecap="round"></path><path d="M 56.000,108.750 C 59.011,108.310 58.785,107.636 62.000,107.750" stroke-width="4.152" stroke="black" fill="none" stroke-linecap="round"></path><path d="M 62.000,107.750 C 66.980,106.636 67.011,106.810 72.000,105.750" stroke-width="3.685" stroke="black" fill="none" stroke-linecap="round"></path><path d="M 72.000,105.750 C 75.500,105.250 75.480,105.136 79.000,104.750" stroke-width="3.834" stroke="black" fill="none" stroke-linecap="round"></path><path d="M 79.000,104.750 C 82.484,104.020 82.500,104.250 86.000,103.750" stroke-width="3.881" stroke="black" fill="none" stroke-linecap="round"></path><path d="M 86.000,103.750 C 89.021,103.998 88.984,103.520 92.000,103.750" stroke-width="4.070" stroke="black" fill="none" stroke-linecap="round"></path><path d="M 92.000,103.750 C 95.000,103.250 95.021,103.498 98.000,102.750" stroke-width="4.509" stroke="black" fill="none" stroke-linecap="round"></path><path d="M 98.000,102.750 C 101.019,102.346 101.000,102.250 104.000,101.750" stroke-width="4.659" stroke="black" fill="none" stroke-linecap="round"></path><path d="M 104.000,101.750 C 108.472,100.599 108.519,100.846 113.000,99.750" stroke-width="4.451" stroke="black" fill="none" stroke-linecap="round"></path><path d="M 113.000,99.750 C 116.664,99.776 116.472,99.099 120.000,98.750" stroke-width="4.593" stroke="black" fill="none" stroke-linecap="round"></path><path d="M 120.000,98.750 C 122.949,97.137 123.164,97.776 126.000,95.750" stroke-width="4.836" stroke="black" fill="none" stroke-linecap="round"></path><path d="M 126.000,95.750 C 128.599,94.950 128.449,94.637 131.000,93.750" stroke-width="4.996" stroke="black" fill="none" stroke-linecap="round"></path><path d="M 157.000,102.750 C 153.705,100.175 153.500,100.750 150.000,98.750" stroke-width="4.929" stroke="black" fill="none" stroke-linecap="round"></path><path d="M 150.000,98.750 C 147.024,97.966 147.205,97.675 144.000,97.750" stroke-width="4.351" stroke="black" fill="none" stroke-linecap="round"></path><path d="M 144.000,97.750 C 139.949,97.285 140.024,97.466 136.000,97.750" stroke-width="3.912" stroke="black" fill="none" stroke-linecap="round"></path><path d="M 136.000,97.750 C 131.419,98.487 131.449,98.285 127.000,99.750" stroke-width="3.665" stroke="black" fill="none" stroke-linecap="round"></path><path d="M 127.000,99.750 C 123.657,99.886 124.419,100.487 122.000,101.750" stroke-width="4.029" stroke="black" fill="none" stroke-linecap="round"></path><path d="M 122.000,101.750 C 120.112,105.136 119.657,104.386 119.000,108.750" stroke-width="3.874" stroke="black" fill="none" stroke-linecap="round"></path><path d="M 119.000,108.750 C 117.813,111.761 118.112,111.636 118.000,114.750" stroke-width="3.963" stroke="black" fill="none" stroke-linecap="round"></path><path d="M 118.000,114.750 C 117.899,120.286 118.313,119.761 120.000,124.750" stroke-width="3.578" stroke="black" fill="none" stroke-linecap="round"></path><path d="M 120.000,124.750 C 122.118,129.707 121.899,128.786 126.000,131.750" stroke-width="3.572" stroke="black" fill="none" stroke-linecap="round"></path><path d="M 126.000,131.750 C 132.672,135.038 131.618,134.707 139.000,134.750" stroke-width="3.841" stroke="black" fill="none" stroke-linecap="round"></path><path d="M 139.000,134.750 C 143.871,133.291 143.672,134.538 148.000,130.750" stroke-width="3.582" stroke="black" fill="none" stroke-linecap="round"></path><path d="M 148.000,130.750 C 151.039,129.249 150.371,129.291 152.000,126.750" stroke-width="3.965" stroke="black" fill="none" stroke-linecap="round"></path><path d="M 152.000,126.750 C 153.000,122.247 153.539,122.749 153.000,117.750" stroke-width="3.754" stroke="black" fill="none" stroke-linecap="round"></path><path d="M 153.000,117.750 C 153.562,113.321 153.000,113.747 152.000,109.750" stroke-width="3.744" stroke="black" fill="none" stroke-linecap="round"></path><path d="M 152.000,109.750 C 149.575,105.000 150.062,105.321 146.000,101.750" stroke-width="4.108" stroke="black" fill="none" stroke-linecap="round"></path><path d="M 146.000,101.750 C 143.601,100.223 144.075,100.000 141.000,99.750" stroke-width="4.578" stroke="black" fill="none" stroke-linecap="round"></path><path d="M 160.000,117.750 C 164.098,114.872 164.000,114.750 168.000,111.750" stroke-width="5.250" stroke="black" fill="none" stroke-linecap="round"></path><path d="M 168.000,111.750 C 171.591,108.849 171.598,108.872 175.000,105.750" stroke-width="3.948" stroke="black" fill="none" stroke-linecap="round"></path><path d="M 175.000,105.750 C 176.916,103.660 177.091,103.849 179.000,101.750" stroke-width="4.091" stroke="black" fill="none" stroke-linecap="round"></path><path d="M 179.000,101.750 C 183.000,98.250 182.916,98.160 187.000,94.750" stroke-width="3.566" stroke="black" fill="none" stroke-linecap="round"></path><path d="M 187.000,94.750 C 191.393,91.615 191.000,91.250 195.000,87.750" stroke-width="3.433" stroke="black" fill="none" stroke-linecap="round"></path><path d="M 195.000,87.750 C 198.445,84.008 198.393,84.115 201.000,79.750" stroke-width="3.508" stroke="black" fill="none" stroke-linecap="round"></path><path d="M 201.000,79.750 C 202.300,76.150 202.945,76.508 204.000,72.750" stroke-width="3.715" stroke="black" fill="none" stroke-linecap="round"></path><path d="M 204.000,72.750 C 206.301,69.391 205.800,69.150 208.000,65.750" stroke-width="3.733" stroke="black" fill="none" stroke-linecap="round"></path><path d="M 208.000,65.750 C 209.563,61.772 209.801,61.891 211.000,57.750" stroke-width="3.686" stroke="black" fill="none" stroke-linecap="round"></path><path d="M 211.000,57.750 C 212.613,54.849 212.063,54.772 213.000,51.750" stroke-width="3.872" stroke="black" fill="none" stroke-linecap="round"></path><path d="M 213.000,51.750 C 213.579,46.669 213.613,46.849 213.000,41.750" stroke-width="4.152" stroke="black" fill="none" stroke-linecap="round"></path><path d="M 213.000,41.750 C 213.012,37.337 212.579,38.169 211.000,34.750" stroke-width="4.639" stroke="black" fill="none" stroke-linecap="round"></path><path d="M 211.000,34.750 C 208.449,32.527 209.512,32.837 206.000,32.750" stroke-width="5.014" stroke="black" fill="none" stroke-linecap="round"></path><path d="M 206.000,32.750 C 202.410,33.581 202.949,33.027 200.000,35.750" stroke-width="4.772" stroke="black" fill="none" stroke-linecap="round"></path><path d="M 200.000,35.750 C 197.717,38.601 197.410,38.081 196.000,41.750" stroke-width="4.662" stroke="black" fill="none" stroke-linecap="round"></path><path d="M 196.000,41.750 C 194.967,44.237 194.717,44.101 194.000,46.750" stroke-width="4.283" stroke="black" fill="none" stroke-linecap="round"></path><path d="M 194.000,46.750 C 192.253,50.679 192.467,50.737 191.000,54.750" stroke-width="4.371" stroke="black" fill="none" stroke-linecap="round"></path><path d="M 191.000,54.750 C 190.573,57.266 190.253,57.179 190.000,59.750" stroke-width="4.297" stroke="black" fill="none" stroke-linecap="round"></path><path d="M 190.000,59.750 C 188.758,63.705 189.073,63.766 188.000,67.750" stroke-width="4.437" stroke="black" fill="none" stroke-linecap="round"></path><path d="M 188.000,67.750 C 187.613,71.768 187.258,71.705 187.000,75.750" stroke-width="4.456" stroke="black" fill="none" stroke-linecap="round"></path><path d="M 187.000,75.750 C 186.360,78.228 186.613,78.268 186.000,80.750" stroke-width="4.272" stroke="black" fill="none" stroke-linecap="round"></path><path d="M 186.000,80.750 C 185.562,85.258 185.360,85.228 185.000,89.750" stroke-width="4.350" stroke="black" fill="none" stroke-linecap="round"></path><path d="M 185.000,89.750 C 184.235,93.231 184.562,93.258 184.000,96.750" stroke-width="4.527" stroke="black" fill="none" stroke-linecap="round"></path><path d="M 184.000,96.750 C 184.000,100.750 183.735,100.731 184.000,104.750" stroke-width="4.739" stroke="black" fill="none" stroke-linecap="round"></path><path d="M 184.000,104.750 C 184.268,108.272 184.000,108.250 184.000,111.750" stroke-width="4.652" stroke="black" fill="none" stroke-linecap="round"></path><path d="M 184.000,111.750 C 183.500,114.750 183.768,114.772 183.000,117.750" stroke-width="4.704" stroke="black" fill="none" stroke-linecap="round"></path><path d="M 183.000,117.750 C 182.796,120.833 182.500,120.750 182.000,123.750" stroke-width="4.736" stroke="black" fill="none" stroke-linecap="round"></path><path d="M 182.000,123.750 C 180.200,129.351 181.296,126.333 180.000,128.750" stroke-width="5.132" stroke="black" fill="none" stroke-linecap="round"></path><path d="M 180.000,128.750 C 180.101,124.647 179.700,127.851 181.000,120.750" stroke-width="5.444" stroke="black" fill="none" stroke-linecap="round"></path><path d="M 181.000,120.750 C 182.080,118.279 181.601,118.147 183.000,115.750" stroke-width="5.175" stroke="black" fill="none" stroke-linecap="round"></path><path d="M 183.000,115.750 C 183.509,112.483 184.080,112.779 185.000,109.750" stroke-width="5.030" stroke="black" fill="none" stroke-linecap="round"></path><path d="M 185.000,109.750 C 186.495,106.420 186.509,106.983 189.000,104.750" stroke-width="5.202" stroke="black" fill="none" stroke-linecap="round"></path><path d="M 189.000,104.750 C 191.492,103.750 190.995,103.420 194.000,103.750" stroke-width="5.216" stroke="black" fill="none" stroke-linecap="round"></path><path d="M 194.000,103.750 C 197.878,103.159 196.992,103.750 200.000,104.750" stroke-width="5.280" stroke="black" fill="none" stroke-linecap="round"></path><path d="M 200.000,104.750 C 201.230,107.182 201.878,106.159 202.000,109.750" stroke-width="5.224" stroke="black" fill="none" stroke-linecap="round"></path><path d="M 202.000,109.750 C 202.770,112.223 202.730,112.182 203.000,114.750" stroke-width="5.271" stroke="black" fill="none" stroke-linecap="round"></path><path d="M 203.000,114.750 C 202.239,117.961 203.270,117.723 203.000,120.750" stroke-width="5.268" stroke="black" fill="none" stroke-linecap="round"></path><path d="M 203.000,120.750 C 204.094,123.605 203.739,123.461 206.000,125.750" stroke-width="5.244" stroke="black" fill="none" stroke-linecap="round"></path><path d="M 206.000,125.750 C 208.179,128.981 208.094,128.105 211.000,129.750" stroke-width="5.185" stroke="black" fill="none" stroke-linecap="round"></path><path d="M 211.000,129.750 C 214.712,130.351 213.679,130.481 217.000,128.750" stroke-width="5.258" stroke="black" fill="none" stroke-linecap="round"></path><path d="M 217.000,128.750 C 219.402,125.946 219.712,126.851 221.000,122.750" stroke-width="5.120" stroke="black" fill="none" stroke-linecap="round"></path><path d="M 221.000,122.750 C 221.920,119.721 222.402,119.946 223.000,116.750" stroke-width="5.023" stroke="black" fill="none" stroke-linecap="round"></path><path d="M 223.000,116.750 C 224.000,114.250 223.920,114.221 225.000,111.750" stroke-width="5.054" stroke="black" fill="none" stroke-linecap="round"></path><path d="M 225.000,111.750 C 225.537,108.945 226.000,109.250 227.000,106.750" stroke-width="5.156" stroke="black" fill="none" stroke-linecap="round"></path><path d="M 227.000,106.750 C 228.633,103.539 228.537,104.445 231.000,102.750" stroke-width="5.266" stroke="black" fill="none" stroke-linecap="round"></path><path d="M 231.000,102.750 C 234.298,102.291 233.133,102.039 236.000,103.750" stroke-width="5.336" stroke="black" fill="none" stroke-linecap="round"></path><path d="M 236.000,103.750 C 237.527,106.149 237.798,105.291 238.000,108.750" stroke-width="5.236" stroke="black" fill="none" stroke-linecap="round"></path><path d="M 238.000,108.750 C 238.527,111.851 238.527,111.649 238.000,114.750" stroke-width="5.069" stroke="black" fill="none" stroke-linecap="round"></path><path d="M 238.000,114.750 C 236.473,117.149 237.527,117.351 236.000,119.750" stroke-width="5.075" stroke="black" fill="none" stroke-linecap="round"></path><path d="M 236.000,119.750 C 236.270,122.777 235.473,122.649 236.000,125.750" stroke-width="5.030" stroke="black" fill="none" stroke-linecap="round"></path><path d="M 236.000,125.750 C 235.230,130.980 235.770,128.277 235.000,130.750" stroke-width="5.174" stroke="black" fill="none" stroke-linecap="round"></path><path d="M 235.000,130.750 C 234.730,127.723 234.730,130.480 235.000,124.750" stroke-width="5.409" stroke="black" fill="none" stroke-linecap="round"></path><path d="M 235.000,124.750 C 235.500,122.250 235.230,122.223 236.000,119.750" stroke-width="5.178" stroke="black" fill="none" stroke-linecap="round"></path><path d="M 236.000,119.750 C 236.270,117.182 236.500,117.250 237.000,114.750" stroke-width="5.119" stroke="black" fill="none" stroke-linecap="round"></path><path d="M 237.000,114.750 C 237.401,111.806 237.770,112.182 239.000,109.750" stroke-width="5.224" stroke="black" fill="none" stroke-linecap="round"></path><path d="M 239.000,109.750 C 241.217,107.142 240.901,107.306 244.000,105.750" stroke-width="5.293" stroke="black" fill="none" stroke-linecap="round"></path><path d="M 244.000,105.750 C 246.500,104.750 246.217,104.642 249.000,104.750" stroke-width="5.321" stroke="black" fill="none" stroke-linecap="round"></path><path d="M 249.000,104.750 C 252.298,104.291 251.500,104.750 254.000,105.750" stroke-width="5.243" stroke="black" fill="none" stroke-linecap="round"></path><path d="M 254.000,105.750 C 255.230,108.182 255.798,107.291 256.000,110.750" stroke-width="5.276" stroke="black" fill="none" stroke-linecap="round"></path><path d="M 256.000,110.750 C 257.000,113.250 256.730,113.182 257.000,115.750" stroke-width="5.148" stroke="black" fill="none" stroke-linecap="round"></path><path d="M 257.000,115.750 C 256.864,118.375 257.000,118.250 256.000,120.750" stroke-width="5.104" stroke="black" fill="none" stroke-linecap="round"></path><path d="M 256.000,120.750 C 254.287,123.662 254.864,123.875 253.000,126.750" stroke-width="4.985" stroke="black" fill="none" stroke-linecap="round"></path><path d="M 253.000,126.750 C 250.065,130.414 251.787,129.662 251.000,132.750" stroke-width="5.083" stroke="black" fill="none" stroke-linecap="round"></path><path d="M 251.000,132.750 C 253.702,135.735 252.065,135.414 257.000,136.750" stroke-width="5.189" stroke="black" fill="none" stroke-linecap="round"></path><path d="M 306.000,39.750 C 306.581,42.236 306.500,42.250 307.000,44.750" stroke-width="5.417" stroke="black" fill="none" stroke-linecap="round"></path><path d="M 307.000,44.750 C 307.780,48.230 307.581,48.236 308.000,51.750" stroke-width="5.065" stroke="black" fill="none" stroke-linecap="round"></path><path d="M 308.000,51.750 C 307.751,56.264 308.280,56.230 308.000,60.750" stroke-width="4.831" stroke="black" fill="none" stroke-linecap="round"></path><path d="M 308.000,60.750 C 308.360,65.272 308.251,65.264 309.000,69.750" stroke-width="4.509" stroke="black" fill="none" stroke-linecap="round"></path><path d="M 309.000,69.750 C 309.789,72.221 309.360,72.272 310.000,74.750" stroke-width="4.287" stroke="black" fill="none" stroke-linecap="round"></path><path d="M 310.000,74.750 C 310.000,78.250 310.289,78.221 310.000,81.750" stroke-width="4.528" stroke="black" fill="none" stroke-linecap="round"></path><path d="M 310.000,81.750 C 310.000,86.250 310.000,86.250 310.000,90.750" stroke-width="4.672" stroke="black" fill="none" stroke-linecap="round"></path><path d="M 310.000,90.750 C 310.000,94.750 310.000,94.750 310.000,98.750" stroke-width="4.570" stroke="black" fill="none" stroke-linecap="round"></path><path d="M 310.000,98.750 C 310.000,102.750 310.000,102.750 310.000,106.750" stroke-width="4.753" stroke="black" fill="none" stroke-linecap="round"></path><path d="M 310.000,106.750 C 310.000,110.250 310.000,110.250 310.000,113.750" stroke-width="4.870" stroke="black" fill="none" stroke-linecap="round"></path><path d="M 310.000,113.750 C 310.280,118.270 310.000,118.250 310.000,122.750" stroke-width="4.524" stroke="black" fill="none" stroke-linecap="round"></path><path d="M 310.000,122.750 C 309.581,126.264 309.780,126.270 309.000,129.750" stroke-width="4.582" stroke="black" fill="none" stroke-linecap="round"></path><path d="M 309.000,129.750 C 309.036,132.472 308.581,132.264 308.000,134.750" stroke-width="4.916" stroke="black" fill="none" stroke-linecap="round"></path><path d="M 308.000,134.750 C 306.576,138.460 306.536,137.972 304.000,140.750" stroke-width="5.007" stroke="black" fill="none" stroke-linecap="round"></path><path d="M 304.000,140.750 C 301.401,141.550 302.076,142.460 299.000,142.750" stroke-width="5.050" stroke="black" fill="none" stroke-linecap="round"></path><path d="M 299.000,142.750 C 296.692,145.261 296.401,144.050 294.000,145.750" stroke-width="5.018" stroke="black" fill="none" stroke-linecap="round"></path><path d="M 294.000,145.750 C 290.591,146.045 291.192,146.261 288.000,144.750" stroke-width="5.096" stroke="black" fill="none" stroke-linecap="round"></path><path d="M 288.000,144.750 C 285.492,143.094 285.591,143.545 284.000,140.750" stroke-width="4.886" stroke="black" fill="none" stroke-linecap="round"></path><path d="M 284.000,140.750 C 281.599,137.344 281.992,137.594 281.000,133.750" stroke-width="4.874" stroke="black" fill="none" stroke-linecap="round"></path><path d="M 281.000,133.750 C 280.489,130.477 280.599,131.344 282.000,128.750" stroke-width="5.020" stroke="black" fill="none" stroke-linecap="round"></path><path d="M 282.000,128.750 C 284.833,126.542 283.989,126.477 288.000,125.750" stroke-width="5.080" stroke="black" fill="none" stroke-linecap="round"></path><path d="M 288.000,125.750 C 291.211,124.989 290.833,125.042 294.000,125.750" stroke-width="5.024" stroke="black" fill="none" stroke-linecap="round"></path><path d="M 294.000,125.750 C 297.111,126.652 296.711,126.489 299.000,128.750" stroke-width="5.026" stroke="black" fill="none" stroke-linecap="round"></path><path d="M 299.000,128.750 C 300.889,132.319 301.611,131.652 303.000,135.750" stroke-width="5.005" stroke="black" fill="none" stroke-linecap="round"></path><path d="M 303.000,135.750 C 304.325,139.561 304.889,138.819 307.000,141.750" stroke-width="4.924" stroke="black" fill="none" stroke-linecap="round"></path><path d="M 307.000,141.750 C 310.370,143.713 309.825,144.061 314.000,144.750" stroke-width="4.875" stroke="black" fill="none" stroke-linecap="round"></path><path d="M 314.000,144.750 C 317.514,145.750 317.370,145.713 321.000,145.750" stroke-width="4.903" stroke="black" fill="none" stroke-linecap="round"></path><path d="M 321.000,145.750 C 323.545,145.420 323.514,145.750 326.000,144.750" stroke-width="4.867" stroke="black" fill="none" stroke-linecap="round"></path><path d="M 326.000,144.750 C 329.315,144.316 329.045,143.920 332.000,142.750" stroke-width="4.947" stroke="black" fill="none" stroke-linecap="round"></path><path d="M 332.000,142.750 C 335.383,140.605 335.315,140.816 338.000,137.750" stroke-width="4.641" stroke="black" fill="none" stroke-linecap="round"></path><path d="M 338.000,137.750 C 341.213,134.579 340.883,134.605 343.000,130.750" stroke-width="4.731" stroke="black" fill="none" stroke-linecap="round"></path><path d="M 343.000,130.750 C 344.421,126.802 344.713,127.079 345.000,122.750" stroke-width="4.547" stroke="black" fill="none" stroke-linecap="round"></path><path d="M 345.000,122.750 C 344.473,119.649 345.421,119.802 345.000,116.750" stroke-width="4.678" stroke="black" fill="none" stroke-linecap="round"></path><path d="M 345.000,116.750 C 346.296,114.333 345.473,114.149 347.000,111.750" stroke-width="4.386" stroke="black" fill="none" stroke-linecap="round"></path><path d="M 347.000,111.750 C 347.598,108.764 347.796,108.833 348.000,105.750" stroke-width="4.164" stroke="black" fill="none" stroke-linecap="round"></path><path d="M 348.000,105.750 C 348.718,101.262 348.598,101.264 349.000,96.750" stroke-width="4.316" stroke="black" fill="none" stroke-linecap="round"></path><path d="M 349.000,96.750 C 349.000,93.250 349.218,93.262 349.000,89.750" stroke-width="4.521" stroke="black" fill="none" stroke-linecap="round"></path><path d="M 349.000,89.750 C 349.249,85.236 349.000,85.250 349.000,80.750" stroke-width="4.450" stroke="black" fill="none" stroke-linecap="round"></path><path d="M 349.000,80.750 C 348.883,76.166 348.749,76.236 348.000,71.750" stroke-width="4.644" stroke="black" fill="none" stroke-linecap="round"></path><path d="M 348.000,71.750 C 346.930,68.772 347.383,68.666 346.000,65.750" stroke-width="4.681" stroke="black" fill="none" stroke-linecap="round"></path><path d="M 346.000,65.750 C 345.222,62.171 344.930,62.272 344.000,58.750" stroke-width="4.630" stroke="black" fill="none" stroke-linecap="round"></path><path d="M 344.000,58.750 C 343.008,54.906 342.722,55.171 341.000,51.750" stroke-width="4.588" stroke="black" fill="none" stroke-linecap="round"></path><path d="M 341.000,51.750 C 338.723,49.966 339.508,49.406 337.000,47.750" stroke-width="4.721" stroke="black" fill="none" stroke-linecap="round"></path><path d="M 337.000,47.750 C 335.395,45.308 335.223,45.466 334.000,42.750" stroke-width="4.747" stroke="black" fill="none" stroke-linecap="round"></path><path d="M 334.000,42.750 C 332.987,39.399 332.395,39.808 331.000,36.750" stroke-width="4.679" stroke="black" fill="none" stroke-linecap="round"></path><path d="M 331.000,36.750 C 328.351,33.263 328.487,33.399 325.000,30.750" stroke-width="4.870" stroke="black" fill="none" stroke-linecap="round"></path><path d="M 325.000,30.750 C 322.125,28.886 322.351,28.763 319.000,27.750" stroke-width="4.924" stroke="black" fill="none" stroke-linecap="round"></path><path d="M 319.000,27.750 C 316.527,26.980 316.625,26.886 314.000,26.750" stroke-width="4.873" stroke="black" fill="none" stroke-linecap="round"></path><path d="M 314.000,26.750 C 310.987,26.537 311.027,26.480 308.000,26.750" stroke-width="4.777" stroke="black" fill="none" stroke-linecap="round"></path><path d="M 308.000,26.750 C 303.897,26.851 303.987,27.037 300.000,27.750" stroke-width="4.928" stroke="black" fill="none" stroke-linecap="round"></path><path d="M 300.000,27.750 C 297.310,28.403 297.397,28.351 295.000,29.750" stroke-width="5.025" stroke="black" fill="none" stroke-linecap="round"></path><path d="M 367.000,110.750 C 363.921,111.070 364.500,111.750 362.000,112.750" stroke-width="5.516" stroke="black" fill="none" stroke-linecap="round"></path><path d="M 362.000,112.750 C 360.300,115.151 359.921,114.570 359.000,117.750" stroke-width="5.277" stroke="black" fill="none" stroke-linecap="round"></path><path d="M 359.000,117.750 C 357.770,120.182 357.800,120.151 357.000,122.750" stroke-width="5.294" stroke="black" fill="none" stroke-linecap="round"></path><path d="M 357.000,122.750 C 356.230,125.223 356.270,125.182 356.000,127.750" stroke-width="5.300" stroke="black" fill="none" stroke-linecap="round"></path><path d="M 356.000,127.750 C 354.791,131.331 355.730,130.723 356.000,133.750" stroke-width="5.289" stroke="black" fill="none" stroke-linecap="round"></path><path d="M 356.000,133.750 C 358.500,135.750 357.291,136.331 361.000,137.750" stroke-width="5.287" stroke="black" fill="none" stroke-linecap="round"></path><path d="M 361.000,137.750 C 363.161,140.717 363.500,139.750 366.000,141.750" stroke-width="5.235" stroke="black" fill="none" stroke-linecap="round"></path><path d="M 366.000,141.750 C 369.027,142.020 368.661,142.717 372.000,141.750" stroke-width="5.189" stroke="black" fill="none" stroke-linecap="round"></path><path d="M 372.000,141.750 C 375.134,142.150 374.527,141.520 377.000,140.750" stroke-width="5.208" stroke="black" fill="none" stroke-linecap="round"></path><path d="M 377.000,140.750 C 378.933,138.417 379.134,139.150 380.000,135.750" stroke-width="5.269" stroke="black" fill="none" stroke-linecap="round"></path><path d="M 380.000,135.750 C 380.544,133.258 380.933,133.417 381.000,130.750" stroke-width="4.970" stroke="black" fill="none" stroke-linecap="round"></path><path d="M 381.000,130.750 C 381.456,127.742 381.544,127.758 382.000,124.750" stroke-width="5.081" stroke="black" fill="none" stroke-linecap="round"></path><path d="M 382.000,124.750 C 382.500,122.250 382.456,122.242 383.000,119.750" stroke-width="5.170" stroke="black" fill="none" stroke-linecap="round"></path><path d="M 383.000,119.750 C 384.933,116.616 383.500,117.250 384.000,114.750" stroke-width="5.202" stroke="black" fill="none" stroke-linecap="round"></path><path d="M 384.000,114.750 C 381.000,111.250 382.933,112.616 379.000,111.750" stroke-width="5.365" stroke="black" fill="none" stroke-linecap="round"></path><path d="M 379.000,111.750 C 376.533,114.083 377.000,112.250 376.000,116.750" stroke-width="5.409" stroke="black" fill="none" stroke-linecap="round"></path><path d="M 376.000,116.750 C 375.815,119.617 375.533,119.083 377.000,121.750" stroke-width="5.404" stroke="black" fill="none" stroke-linecap="round"></path><path d="M 377.000,121.750 C 378.784,124.027 378.315,124.117 381.000,125.750" stroke-width="5.389" stroke="black" fill="none" stroke-linecap="round"></path><path d="M 381.000,125.750 C 383.401,127.450 383.284,127.527 386.000,128.750" stroke-width="5.402" stroke="black" fill="none" stroke-linecap="round"></path><path d="M 386.000,128.750 C 388.432,129.980 388.401,129.950 391.000,130.750" stroke-width="5.423" stroke="black" fill="none" stroke-linecap="round"></path><path d="M 391.000,130.750 C 393.500,131.250 393.432,131.480 396.000,131.750" stroke-width="5.222" stroke="black" fill="none" stroke-linecap="round"></path><path d="M 396.000,131.750 C 398.568,132.993 398.500,132.250 401.000,132.750" stroke-width="5.276" stroke="black" fill="none" stroke-linecap="round"></path><path d="M 401.000,132.750 C 403.716,132.120 403.568,132.493 406.000,130.750" stroke-width="5.227" stroke="black" fill="none" stroke-linecap="round"></path><path d="M 406.000,130.750 C 409.099,129.194 408.716,129.120 411.000,126.750" stroke-width="5.271" stroke="black" fill="none" stroke-linecap="round"></path><path d="M 411.000,126.750 C 412.527,124.351 412.599,124.694 413.000,121.750" stroke-width="5.217" stroke="black" fill="none" stroke-linecap="round"></path><path d="M 413.000,121.750 C 413.527,118.649 413.527,118.851 413.000,115.750" stroke-width="5.170" stroke="black" fill="none" stroke-linecap="round"></path><path d="M 413.000,115.750 C 412.878,112.159 412.527,113.149 411.000,110.750" stroke-width="5.245" stroke="black" fill="none" stroke-linecap="round"></path><path d="M 411.000,110.750 C 407.591,108.973 408.878,109.159 405.000,109.750" stroke-width="5.259" stroke="black" fill="none" stroke-linecap="round"></path><path d="M 405.000,109.750 C 402.723,111.534 402.591,110.473 401.000,113.750" stroke-width="5.316" stroke="black" fill="none" stroke-linecap="round"></path><path d="M 401.000,113.750 C 399.300,116.151 399.223,116.034 398.000,118.750" stroke-width="5.216" stroke="black" fill="none" stroke-linecap="round"></path><path d="M 398.000,118.750 C 397.000,121.250 396.800,121.151 396.000,123.750" stroke-width="5.112" stroke="black" fill="none" stroke-linecap="round"></path><path d="M 396.000,123.750 C 395.000,126.250 395.000,126.250 394.000,128.750" stroke-width="5.074" stroke="black" fill="none" stroke-linecap="round"></path><path d="M 394.000,128.750 C 392.473,131.149 393.000,131.250 392.000,133.750" stroke-width="5.070" stroke="black" fill="none" stroke-linecap="round"></path><path d="M 392.000,133.750 C 391.239,136.961 391.473,136.649 392.000,139.750" stroke-width="5.147" stroke="black" fill="none" stroke-linecap="round"></path><path d="M 392.000,139.750 C 393.000,142.750 392.739,142.461 395.000,144.750" stroke-width="5.228" stroke="black" fill="none" stroke-linecap="round"></path><path d="M 395.000,144.750 C 397.333,146.683 397.000,146.750 400.000,147.750" stroke-width="5.182" stroke="black" fill="none" stroke-linecap="round"></path><path d="M 400.000,147.750 C 402.473,148.520 402.333,148.683 405.000,148.750" stroke-width="5.261" stroke="black" fill="none" stroke-linecap="round"></path><path d="M 405.000,148.750 C 408.027,149.020 407.973,149.020 411.000,148.750" stroke-width="5.183" stroke="black" fill="none" stroke-linecap="round"></path><path d="M 411.000,148.750 C 413.568,148.480 413.527,148.520 416.000,147.750" stroke-width="5.287" stroke="black" fill="none" stroke-linecap="round"></path></svg>